# xmcd
#
# Track frame offsets:
#	150
#	20080
#	34987
#	55435
#	72007
#	89352
#	105510
#	124547
#	143630
#	158915
#	178775
#	201037
#
# Disc length: 2915 seconds
#
# Revision: 0
# Processed by: cddbd v1.5.2PL0 Copyright (c) Steve Scherf et al.
# Submitted via: audiograbber 1.83.01
#
DISCID=a30b610c
DTITLE=Jessica Simpson - Sweet Kisses
DYEAR=1999
DGENRE=Pop
TTITLE0=I Wanna Love You Forever
TTITLE1=I Think I'm In Love With You
TTITLE2=Where You Are (featuring Nick Lachey)
TTITLE3=Final Heartbreak
TTITLE4=Woman In Me (featuring Destiny's Child)
TTITLE5=I've Got My Eyes On You
TTITLE6=Betcha She Don't Love You
TTITLE7=My Wonderful
TTITLE8=Sweet Kisses
TTITLE9=Your Faith In Me
TTITLE10=Heart Of Innocence
TTITLE11=Did You Ever Love Somebody
EXTD=
EXTT0=
EXTT1=
EXTT2=
EXTT3=
EXTT4=
EXTT5=
EXTT6=
EXTT7=
EXTT8=
EXTT9=
EXTT10=
EXTT11=
PLAYORDER=
